<svg width="350" height="350" viewBox="0 0 350 350" fill="none" xmlns="http://www.w3.org/2000/svg">
<path d="M175 325C257.843 325 325 257.843 325 175C325 92.1573 257.843 25 175 25C92.1573 25 25 92.1573 25 175C25 257.843 92.1573 325 175 325Z" fill="#302E31" stroke="white" stroke-width="14.54"/>
<path d="M98.743 96.229C103.352 73.98 118.436 53.911 138.715 43.855C135.187 47.437 130.922 50.182 127.654 54.078C114.288 68.492 108.254 89.358 111.941 108.547C116.592 137.835 144.12 161.76 173.953 161.341C197.081 162.376 219.623 149.064 230.936 128.994C255.154 129.816 278.701 142.318 292.528 162.388C299.609 172.863 305.14 185.14 305.517 197.919C301.034 180.95 289.763 165.866 274.385 157.36C259.511 148.98 241.243 146.844 224.944 151.788C204.497 157.654 187.612 174.372 181.788 194.944C176.844 211.327 178.959 229.385 186.732 244.385C175.922 263.115 156.397 276.48 135.196 280.503C118.897 283.922 101.76 281.282 86.592 274.427C100.168 278.387 114.916 279.078 128.408 274.279C146.508 268.288 161.466 253.749 168.045 235.816C175.335 216.291 172.57 193.078 160.293 176.319C151.117 163.12 136.662 153.819 120.95 150.509C115.964 149.62 110.936 149.218 105.908 148.757C97.905 132.626 94.972 113.897 98.994 96.383L98.743 96.229V96.229Z" fill="#C4C2C4"/>
</svg>
